{"title":"13 Sins 2014 480p BRRip XviD AC3-N3kr4","uid":10262367,"size":1476164059,"categoryP":"video","categoryS":"hd___movies","magnet":"?xt=urn:btih:9b20145934e1b528d47ef620aa44a820c0eeeb5e&amp;dn=13+Sins+2014+480p+BRRip+XviD+AC3-N3kr4&amp;tr=udp%3A%2F%2Ftracker.openbittorrent.com%3A80&amp;tr=udp%3A%2F%2Fopen.demonii.com%3A1337&amp;tr=udp%3A%2F%2Ftracker.coppersurfer.tk%3A6969&amp;tr=udp%3A%2F%2Fexodus.desync.com%3A6969","seeders":1,"leechers":0,"uploader":"Falcon.G13","files":2,"time":1401479915,"description":" &lt;a href=&quot;http://i.imgur.com/81hO0An.jpg&quot; rel=&quot;nofollow&quot; target=&quot;_NEW&quot;&gt;http://i.imgur.com/81hO0An.jpg&lt;/a&gt;\n &lt;a href=&quot;\nhttp://i.imgur.com/fkfboQt.jpg&quot; rel=&quot;nofollow&quot; target=&quot;_NEW&quot;&gt;\nhttp://i.imgur.com/fkfboQt.jpg&lt;/a&gt; &lt;a href=&quot;\nhttp://i.imgur.com/4aNjw3W.jpg&quot; rel=&quot;nofollow&quot; target=&quot;_NEW&quot;&gt;\nhttp://i.imgur.com/4aNjw3W.jpg&lt;/a&gt; &lt;a href=&quot;\nhttp://i.imgur.com/jCVikhD.jpg&quot; rel=&quot;nofollow&quot; target=&quot;_NEW&quot;&gt;\nhttp://i.imgur.com/jCVikhD.jpg&lt;/a&gt; &lt;a href=&quot;\nhttp://i.imgur.com/bNETMAe.jpg&quot; rel=&quot;nofollow&quot; target=&quot;_NEW&quot;&gt;\nhttp://i.imgur.com/bNETMAe.jpg&lt;/a&gt; &lt;a href=&quot;\nhttp://i.imgur.com/n3EkqjH.jpg&quot; rel=&quot;nofollow&quot; target=&quot;_NEW&quot;&gt;\nhttp://i.imgur.com/n3EkqjH.jpg&lt;/a&gt; &lt;a href=&quot;\nhttp://i.imgur.com/L2QdjVN.jpg&quot; rel=&quot;nofollow&quot; target=&quot;_NEW&quot;&gt;\nhttp://i.imgur.com/L2QdjVN.jpg&lt;/a&gt;\n\nGeneral\nComplete name :13 Sins 2014 480p BRRip XviD AC3-N3kr4.avi\nFormat : AVI\nFormat/Info : Audio Video Interleave\nFormat profile : OpenDML\nFile size : 1.37 GiB\nDuration : 1h 32mn\nOverall bit rate : 2 127 Kbps\nWriting application : Lavf55.7.100\n\nVideo\nID : 0\nFormat : MPEG-4 Visual\nFormat profile : Advanced Simple@L1\nFormat settings, BVOP : No\nFormat settings, QPel : No\nFormat settings, GMC : No warppoints\nFormat settings, Matrix : Default (H.263)\nCodec ID : XVID\nCodec ID/Hint : XviD\nDuration : 1h 32mn\nBit rate : 1 475 Kbps\nWidth : 720 pixels\nHeight : 304 pixels\nDisplay aspect ratio : 2.35:1\nFrame rate : 23.976 fps\nColor space : YUV\nChroma subsampling : 4:2:0\nBit depth : 8 bits\nScan type : Progressive\nCompression mode : Lossy\nBits/(Pixel*Frame) : 0.281\nStream size : 976 MiB (69%)\nWriting library : Lavc55.12.100\n\nAudio\nID : 1\nFormat : AC-3\nFormat/Info : Audio Coding 3\nMode extension : CM (complete main)\nFormat settings, Endianness : Big\nCodec ID : 2000\nDuration : 1h 32mn\nBit rate mode : Constant\nBit rate : 640 Kbps\nChannel(s) : 6 channels\nChannel positions : Front: L C R, Side: L R, LFE\nSampling rate : 48.0 KHz\nBit depth : 16 bits\nCompression mode : Lossy\nStream size : 424 MiB (30%)\nAlignment : Aligned on interleaves\nInterleave, duration : 32 ms (0.77 video frame)\nInterleave, preload duration : 32 ms","torrent":{"xt":"urn:btih:9b20145934e1b528d47ef620aa44a820c0eeeb5e","amp;dn":"13+Sins+2014+480p+BRRip+XviD+AC3-N3kr4","amp;tr":["udp%3A%2F%2Ftracker.openbittorrent.com%3A80","udp%3A%2F%2Fopen.demonii.com%3A1337","udp%3A%2F%2Ftracker.coppersurfer.tk%3A6969","udp%3A%2F%2Fexodus.desync.com%3A6969"],"infoHash":"9b20145934e1b528d47ef620aa44a820c0eeeb5e","infoHashBuffer":{"type":"Buffer","data":[155,32,20,89,52,225,181,40,212,126,246,32,170,68,168,32,192,238,235,94]},"announce":[],"urlList":[]}}